<svg width="24" height="24" viewBox="0 0 24 24" xmlns="http://www.w3.org/2000/svg">
  <path d="M4 3h7.2c3.3 0 5.5 1.8 5.5 4.7 0 2.9-2.2 4.7-5.5 4.7H7.1V21H4V3Zm3.1 2.7v4.1h3.8c1.7 0 2.7-.8 2.7-2.1 0-1.3-1-2-2.7-2H7.1Z" fill="currentColor"/>
  <path d="M17 5.5c1.7 0 3.1 1.4 3.1 3.1 0 2.3-1.7 4.4-3.6 5.4l-1.5.8.8-1.6c.6-1 .9-1.9.9-2.8 0-.9-.7-1.5-1.5-1.5-.9 0-1.6.7-1.6 1.5 0 .6.2 1.1.6 1.6l-1.3.9c-.7-.8-1.1-1.7-1.1-2.8 0-2.5 2-4.6 4.5-4.6Z" fill="currentColor"/>
  <circle cx="15.4" cy="8.1" r="0.7" fill="currentColor"/>
</svg>
